<?xml version="1.0" encoding="iso-8859-1"?>
<!-- Generator: Adobe Illustrator 19.0.0, SVG Export Plug-In . SVG Version: 6.00 Build 0)  -->
<svg version="1.1" id="Capa_1" xmlns="http://www.w3.org/2000/svg" xmlns:xlink="http://www.w3.org/1999/xlink" x="0px" y="0px"
	 viewBox="0 0 512 512" style="enable-background:new 0 0 512 512;" xml:space="preserve">
<circle style="fill:#E02424;" cx="256" cy="256" r="256"/>
<path style="fill:#990011;" d="M512,256c0-1.61-0.031-3.212-0.061-4.815L369.678,108.924H301.05l-45.83-46.363l-112.898,46.363l0,0
	l0.002,294.153l108.861,108.862c1.603,0.03,3.205,0.061,4.815,0.061C397.385,512,512,397.385,512,256z"/>
<rect x="142.32" y="108.92" style="fill:#FFE670;" width="227.35" height="294.15"/>
<polygon style="fill:#00A6FF;" points="142.322,108.924 142.322,403.076 255.22,449.439 255.22,62.561 "/>
<polygon style="fill:#006EF5;" points="255.22,62.56 255.22,449.44 198.77,426.26 198.77,85.74 "/>
<ellipse style="fill:#9CFDFF;" cx="227" cy="256" rx="11" ry="14.472"/>
<g>
</g>
<g>
</g>
<g>
</g>
<g>
</g>
<g>
</g>
<g>
</g>
<g>
</g>
<g>
</g>
<g>
</g>
<g>
</g>
<g>
</g>
<g>
</g>
<g>
</g>
<g>
</g>
<g>
</g>
</svg>
